PathFileType	4	(X/Y/Z)	C:/Users/beibeiliu/ov580/test_trc/User2\sequence.18_training_dense_right.trc
DataRate	CameraRate	NumFrames	NumMarkers	Units	OrigDataRate	OrigDataStartFrame	OrigNumFrames
120	120	8	19	mm	120	29	57
Frame#	Time	ThumbCMC			ThumbMCP			ThumbIP			ThumbTip			IndexMCP			IndexPIP			IndexTip			MiddleMCP			MiddlePIP			MiddleTip			RingMCP			RingPIP			RingTip			PinkyMCP			PinkyPIP			PinkyTip			BackHand1			BackHand2			BackHand3	
		X0	Y0	Z0	X1	Y1	Z1	X2	Y2	Z2	X3	Y3	Z3	X4	Y4	Z4	X5	Y5	Z5	X6	Y6	Z6	X7	Y7	Z7	X8	Y8	Z8	X9	Y9	Z9	X10	Y10	Z10	X11	Y11	Z11	X12	Y12	Z12	X13	Y13	Z13	X14	Y14	Z14	X15	Y15	Z15	X16	Y16	Z16	X17	Y17	Z17	X18	Y18	Z18	
28	0.233333	106.623	62.0453	-36.3162	85.3227	55.8081	-68.6345	81.2686	27.7652	-89.4326	92.4225	-1.36704	-89.4701	130.747	61.4064	-112.998	129.559	66.5375	-136.147	128.534	71.4023	-168.286	139.226	31.799	-119.096	138.605	31.5049	-147.551	141.43	29.1984	-180.513	140.1	5.02201	-111.076	142.821	0.159458	-135.094	145.286	-2.69075	-162.015	132.715	-19.6286	-89.8098	136.909	-30.9039	-111.62	145.015	-41.0966	-129.137	145.305	11.1892	-55.4919	153.737	11.8911	-22.3896	144.51	47.9191	-46.0927	
29	0.241667	89.6972	57.5262	-25.5624	70.0894	50.6482	-59.1306	77.5228	25.9096	-90.3289	101.833	4.48721	-86.9123	114.648	73.4951	-104.557	112.157	82.5334	-125.397	110.693	90.0521	-152.502	134.61	53.1728	-111.871	135.49	56.6342	-141.732	137.576	64.8775	-172.684	144.086	27.332	-102.966	149.606	30.7404	-130.965	154.597	34.9996	-158.19	144.935	1.36929	-86.5513	156.45	-4.2237	-111.054	168.574	-6.52818	-127.444	144.463	26.9356	-51.4535	152.037	26.6073	-17.1126	128.329	59.8906	-32.4768	
30	0.25	71.4754	46.0515	-22.831	58.1029	37.8238	-57.3245	72.9943	21.01	-85.8027	99.5837	8.43213	-87.1888	88.4754	78.2576	-91.8962	87.8843	86.4073	-118.432	84.6321	96.5794	-141.513	117.496	67.0923	-102.255	119.028	76.8276	-132.492	121.613	85.7087	-161.273	137.403	48.695	-97.6761	140.394	57.496	-121.794	148.42	64.7801	-151.237	146.16	23.4313	-83.4903	157.34	27.9187	-107.119	170.507	33.1668	-123.157	135.992	38.2977	-44.7405	139.111	38.4339	-13.5788	109.179	61.4348	-25.0308	
31	0.258333	59.3106	26.1589	-19.8234	50.471	17.4704	-57.7007	69.5077	8.25572	-85.5382	101.495	3.79005	-87.7959	70.5165	63.5388	-88.2031	61.5022	74.3645	-114.815	58.2957	83.5643	-140.303	98.5409	65.2431	-99.3078	98.5503	73.9094	-127.091	95.6924	87.4387	-157.137	120.787	53.444	-94.3696	125.373	62.71	-118.237	124.959	73.7144	-142.094	140.69	30.6193	-78.4383	148.42	39.6537	-100.858	157.754	52.433	-120.165	120.746	41.0417	-41.8382	123.434	42.6719	-7.05221	92.3444	51.8997	-23.0548	
32	0.266667	46.1044	8.28801	-15.3966	40.8968	-3.87145	-56.0161	62.8655	-11.3596	-86.0291	95.0371	-11.5143	-84.2352	53.6619	41.4341	-88.1753	40.3406	48.1429	-116.745	36.0639	52.722	-139.619	81.3719	43.7796	-97.2297	76.848	51.6901	-129.222	79.9086	60.2784	-158.972	106.843	36.2611	-93.5022	108.116	43.7921	-118.546	111.794	52.7398	-147.256	127.221	19.1548	-76.5142	139.417	25.72	-99.0036	145.348	38.6799	-122.823	110.785	31.2702	-39.6399	113.978	32.2244	-9.05848	77.7341	39.0312	-26.0775	
33	0.275	39.6141	-3.34761	-14.0614	29.0833	-22.0444	-47.4676	50.43	-35.3099	-76.9614	84.973	-34.4916	-81.1582	39.0606	18.0669	-93.2721	31.3876	18.3118	-116.692	27.1783	19.1004	-143.7	74.344	15.6824	-100.422	67.9373	18.1687	-132.333	66.0903	20.3968	-161.524	98.4633	8.79923	-99.4435	100.226	10.743	-122.813	102.667	11.8013	-149.469	118.843	-4.76463	-79.4513	127.884	-3.84524	-101.052	137.858	4.79812	-124.821	100.899	15.6893	-41.8533	103.08	21.1082	-13.1626	65.6827	25.1323	-24.5395	
34	0.283333	36.4214	-1.34399	-14.2693	20.1839	-23.2715	-43.2421	36.1609	-44.7514	-63.6899	67.5478	-55.5171	-71.6603	37.5648	-0.603316	-94.0766	21.2047	-0.618164	-119.784	15.7197	-4.50636	-142.123	59.8993	-9.27444	-105.201	56.3534	-16.6896	-131.593	53.1107	-23.456	-164.324	84.7104	-23.3808	-98.0038	85.9612	-30.5507	-120.47	83.2681	-33.9326	-152.303	104.24	-38.3501	-78.1616	111	-46.8384	-100.048	116.712	-45.9317	-122.545	97.0658	-6.62764	-42.7064	102.36	6.7179	-14.5249	66.8633	16.4446	-32.2573	
35	0.291667	41.8009	14.5069	-12.9118	16.206	-7.98623	-39.5528	19.5814	-39.2239	-57.3147	45.4415	-56.2191	-56.645	31.0675	2.98867	-96.3386	20.0291	-4.07584	-116.05	6.38758	-5.14348	-139.244	51.9748	-22.2005	-105.2	41.7131	-33.116	-129.23	34.4166	-46.1583	-155.585	71.5161	-43.2627	-92.6871	62.7832	-52.3914	-118.029	59.7121	-65.1387	-144.119	83.7083	-58.4576	-74.8182	81.576	-71.3825	-89.2905	86.3019	-82.2071	-112.7	91.7212	-14.7151	-46.6092	106.802	-2.36993	-18.1609	77.276	14.7661	-37.6846	
